<svg xmlns="http://www.w3.org/2000/svg" viewBox="0 0 1024 1024">
  <defs>
    <linearGradient id="bg" x1="170" y1="120" x2="820" y2="910" gradientUnits="userSpaceOnUse">
      <stop offset="0" stop-color="#ff6b60"/>
      <stop offset="0.55" stop-color="#d94d44"/>
      <stop offset="1" stop-color="#a93632"/>
    </linearGradient>
    <linearGradient id="page" x1="308" y1="230" x2="690" y2="760" gradientUnits="userSpaceOnUse">
      <stop offset="0" stop-color="#fffdfa"/>
      <stop offset="1" stop-color="#f2eee8"/>
    </linearGradient>
    <filter id="shadow" x="-20%" y="-20%" width="140%" height="140%">
      <feDropShadow dx="0" dy="28" stdDeviation="24" flood-color="#68120f" flood-opacity="0.32"/>
    </filter>
  </defs>
  <rect width="1024" height="1024" rx="224" fill="url(#bg)"/>
  <path d="M288 208h448c44 0 80 36 80 80v448c0 44-36 80-80 80H288c-44 0-80-36-80-80V288c0-44 36-80 80-80Z" fill="#8f2e2b" opacity="0.18"/>
  <g filter="url(#shadow)">
    <rect x="268" y="214" width="488" height="596" rx="76" fill="url(#page)"/>
    <rect x="324" y="286" width="376" height="60" rx="24" fill="#dfe7e8"/>
    <rect x="324" y="386" width="376" height="244" rx="34" fill="#cfdadc"/>
    <rect x="324" y="662" width="220" height="34" rx="17" fill="#e5ded4"/>
    <rect x="324" y="716" width="292" height="34" rx="17" fill="#e5ded4"/>
  </g>
  <g fill="none" stroke="#ffffff" stroke-linecap="round" stroke-linejoin="round">
    <path d="M234 792 790 236" stroke-width="76"/>
    <circle cx="274" cy="750" r="82" stroke-width="60"/>
    <circle cx="750" cy="274" r="82" stroke-width="60"/>
  </g>
  <g fill="none" stroke="#ffffff" stroke-linecap="round" stroke-linejoin="round" opacity="0.94">
    <path d="M198 248h126c30 0 54 24 54 54v126" stroke-width="52"/>
    <path d="M826 776H700c-30 0-54-24-54-54V596" stroke-width="52"/>
  </g>
</svg>
